<svg xmlns="http://www.w3.org/2000/svg" width="72" height="74" viewBox="0 0 72 74">
    <path fill="#000" fill-rule="evenodd" d="M72 37C72 16.601 55.847 0 36 0S0 16.601 0 37c0 10.774 4.507 20.491 11.685 27.257l-.032.034 1.163 1.01c.077.066.16.118.237.186a39.194 39.194 0 0 0 1.916 1.51c.212.158.423.314.64.472.704.493 1.419.966 2.154 1.407.16.099.32.19.48.289.8.466 1.624.913 2.46 1.313.064.034.123.06.187.093a35.544 35.544 0 0 0 8.705 2.832c.084.012.16.025.242.039.946.171 1.905.302 2.877.393.115.014.237.02.352.034.965.079 1.944.131 2.934.131.979 0 1.949-.052 2.908-.131.123-.014.244-.02.365-.027.965-.09 1.911-.224 2.85-.387.084-.013.167-.034.25-.047a34.782 34.782 0 0 0 8.578-2.765c.102-.045.205-.092.3-.138a36.936 36.936 0 0 0 2.373-1.261c.191-.113.383-.224.574-.342.704-.427 1.4-.867 2.072-1.347.242-.165.48-.348.715-.526.576-.42 1.144-.86 1.687-1.32.123-.098.257-.19.378-.29l1.194-1.03-.037-.033C67.449 57.59 72 47.833 72 37zM2.621 37C2.621 18.08 17.591 2.694 36 2.694 54.41 2.694 69.379 18.08 69.379 37c0 10.195-4.353 19.361-11.244 25.648a9.427 9.427 0 0 0-1.17-.723L45.882 56.23a2.998 2.998 0 0 1-1.61-2.68v-3.982c.255-.323.53-.691.805-1.098a27.589 27.589 0 0 0 3.426-6.89c1.661-.81 2.73-2.511 2.73-4.429v-4.77a5.007 5.007 0 0 0-1.157-3.186v-6.28c.064-.697.306-4.639-2.468-7.89C45.198 12.2 41.292 10.76 36 10.76c-5.292 0-9.198 1.44-11.608 4.265-2.774 3.251-2.532 7.193-2.468 7.89v6.28a4.993 4.993 0 0 0-1.157 3.187v4.77a4.95 4.95 0 0 0 1.753 3.797c1.06 4.27 3.24 7.503 4.051 8.592v3.895a3.026 3.026 0 0 1-1.52 2.636l-10.356 5.8c-.326.184-.658.4-.984.645C6.911 56.23 2.621 47.125 2.621 37zm52.965 27.757c-.46.341-.928.676-1.401.992l-.651.434c-.62.393-1.247.762-1.892 1.117-.14.072-.281.144-.422.222a32.794 32.794 0 0 1-4.737 2.043 32.28 32.28 0 0 1-2.493.743h-.006a34.564 34.564 0 0 1-2.64.559 38.83 38.83 0 0 1-2.454.308c-.147.013-.295.02-.442.033-.812.059-1.63.098-2.448.098-.831 0-1.656-.039-2.48-.105a34.53 34.53 0 0 1-2.901-.341l-.109-.02a33.217 33.217 0 0 1-5.096-1.307l-.152-.059a29.987 29.987 0 0 1-2.436-.96c-.007 0-.013 0-.018-.007a33.535 33.535 0 0 1-2.232-1.096c-.095-.052-.192-.1-.288-.152a33.99 33.99 0 0 1-1.969-1.175 14.682 14.682 0 0 1-.568-.382A28.937 28.937 0 0 1 16 64.447c-.058-.045-.115-.09-.172-.138l.121-.072 10.355-5.8c1.777-1 2.883-2.917 2.883-5v-4.848l-.3-.375c-.032-.033-2.858-3.567-3.931-8.363l-.115-.532-.448-.296a2.243 2.243 0 0 1-1.01-1.872v-4.77c0-.623.262-1.209.728-1.65l.435-.4v-7.489l-.013-.176c0-.034-.39-3.273 1.828-5.868 1.893-2.22 5.14-3.343 9.64-3.343 4.487 0 7.722 1.116 9.614 3.318 2.217 2.568 1.854 5.866 1.854 5.893l-.013 7.672.435.4c.466.434.728 1.02.728 1.644v4.77c0 .958-.64 1.833-1.546 2.122l-.653.203-.211.67c-.773 2.464-1.872 4.742-3.267 6.767-.345.498-.677.939-.965 1.28l-.32.375v4.98c0 2.168 1.17 4.119 3.056 5.091l11.085 5.696c.07.032.14.073.21.111-.14.106-.28.204-.421.31z"/>
</svg>
